<mxfile host="app.diagrams.net" modified="2021-01-12T02:03:59.689Z" agent="5.0 (Macintosh; Intel Mac OS X 10_15_7) AppleWebKit/537.36 (KHTML, like Gecko) Chrome/87.0.4280.141 Safari/537.36" etag="3bx9Ym3GpPDce1KKN58m" version="14.1.8" type="github">
  <diagram name="Page-1" id="e3a06f82-3646-2815-327d-82caf3d4e204">
    <mxGraphModel dx="1426" dy="794" grid="1" gridSize="10" guides="1" tooltips="1" connect="1" arrows="1" fold="1" page="1" pageScale="1.5" pageWidth="1169" pageHeight="826" background="none" math="0" shadow="0">
      <root>
        <mxCell id="0" style=";html=1;" />
        <mxCell id="1" style=";html=1;" parent="0" />
        <mxCell id="6a7d8f32e03d9370-59" value="&lt;font style=&quot;font-size: 17px&quot;&gt;回测环境&lt;/font&gt;" style="whiteSpace=wrap;html=1;fillColor=#EDEDED;fontSize=14;strokeColor=none;verticalAlign=top;" parent="1" vertex="1">
          <mxGeometry x="530" y="98" width="410" height="1010" as="geometry" />
        </mxCell>
        <mxCell id="6a7d8f32e03d9370-58" value="&lt;font style=&quot;font-size: 17px&quot;&gt;策略开发环境&lt;/font&gt;" style="whiteSpace=wrap;html=1;fillColor=#dae8fc;fontSize=14;strokeColor=none;verticalAlign=top;" parent="1" vertex="1">
          <mxGeometry x="177" y="510" width="310" height="600" as="geometry" />
        </mxCell>
        <mxCell id="6a7d8f32e03d9370-57" value="&lt;font style=&quot;font-size: 16px&quot;&gt;生产环境&lt;/font&gt;" style="whiteSpace=wrap;html=1;fillColor=#ffe6cc;fontSize=14;verticalAlign=top;strokeColor=none;" parent="1" vertex="1">
          <mxGeometry x="179" y="98" width="308" height="252" as="geometry" />
        </mxCell>
        <mxCell id="6a7d8f32e03d9370-43" style="edgeStyle=none;rounded=0;html=1;startSize=10;endSize=10;jettySize=auto;orthogonalLoop=1;fontSize=14;endArrow=none;endFill=0;strokeWidth=2;startArrow=blockThin;startFill=1;entryX=0.5;entryY=1;entryDx=0;entryDy=0;" parent="1" source="A9i1_2r06wziE7NqVmH8-50" target="A9i1_2r06wziE7NqVmH8-48" edge="1">
          <mxGeometry relative="1" as="geometry">
            <mxPoint x="720.5999999999999" y="581.25" as="sourcePoint" />
            <mxPoint x="720" y="280" as="targetPoint" />
          </mxGeometry>
        </mxCell>
        <mxCell id="6a7d8f32e03d9370-13" value="" style="verticalLabelPosition=bottom;aspect=fixed;html=1;verticalAlign=top;strokeColor=none;shape=mxgraph.citrix.router;fillColor=#66B2FF;gradientColor=#0066CC;fontSize=14;" parent="1" vertex="1">
          <mxGeometry x="973" y="587" width="55" height="36.5" as="geometry" />
        </mxCell>
        <mxCell id="6a7d8f32e03d9370-44" style="edgeStyle=none;rounded=0;html=1;startSize=10;endSize=10;jettySize=auto;orthogonalLoop=1;fontSize=14;endArrow=none;endFill=0;strokeWidth=2;startArrow=blockThin;startFill=1;" parent="1" source="A9i1_2r06wziE7NqVmH8-56" target="6a7d8f32e03d9370-13" edge="1">
          <mxGeometry relative="1" as="geometry">
            <mxPoint x="865.2751405371641" y="251.5" as="sourcePoint" />
          </mxGeometry>
        </mxCell>
        <mxCell id="A9i1_2r06wziE7NqVmH8-27" value="FTP" style="edgeLabel;html=1;align=center;verticalAlign=middle;resizable=0;points=[];fontSize=14;" parent="6a7d8f32e03d9370-44" vertex="1" connectable="0">
          <mxGeometry x="0.0849" y="-2" relative="1" as="geometry">
            <mxPoint x="40.22" y="85.31" as="offset" />
          </mxGeometry>
        </mxCell>
        <mxCell id="A9i1_2r06wziE7NqVmH8-21" style="edgeStyle=none;rounded=0;html=1;startSize=10;endSize=10;jettySize=auto;orthogonalLoop=1;fontSize=14;endArrow=none;endFill=0;strokeWidth=2;startArrow=blockThin;startFill=1;" parent="1" source="A9i1_2r06wziE7NqVmH8-48" target="A9i1_2r06wziE7NqVmH8-56" edge="1">
          <mxGeometry relative="1" as="geometry">
            <mxPoint x="735.9999999999995" y="205" as="sourcePoint" />
            <mxPoint x="810" y="205" as="targetPoint" />
          </mxGeometry>
        </mxCell>
        <mxCell id="A9i1_2r06wziE7NqVmH8-25" style="edgeStyle=none;rounded=0;html=1;startSize=10;endSize=10;jettySize=auto;orthogonalLoop=1;fontSize=14;endArrow=none;endFill=0;strokeWidth=2;startArrow=blockThin;startFill=1;entryX=-0.049;entryY=0.552;entryDx=0;entryDy=0;entryPerimeter=0;" parent="1" source="A9i1_2r06wziE7NqVmH8-57" target="6a7d8f32e03d9370-13" edge="1">
          <mxGeometry relative="1" as="geometry">
            <mxPoint x="877" y="608.2907285654217" as="sourcePoint" />
            <mxPoint x="940" y="603" as="targetPoint" />
          </mxGeometry>
        </mxCell>
        <mxCell id="A9i1_2r06wziE7NqVmH8-28" value="HTTP/FILE" style="edgeLabel;html=1;align=center;verticalAlign=middle;resizable=0;points=[];fontSize=14;" parent="A9i1_2r06wziE7NqVmH8-25" vertex="1" connectable="0">
          <mxGeometry x="0.0505" y="-1" relative="1" as="geometry">
            <mxPoint as="offset" />
          </mxGeometry>
        </mxCell>
        <mxCell id="A9i1_2r06wziE7NqVmH8-26" style="edgeStyle=none;rounded=0;html=1;startSize=10;endSize=10;jettySize=auto;orthogonalLoop=1;fontSize=14;endArrow=none;endFill=0;strokeWidth=2;startArrow=blockThin;startFill=1;entryX=0;entryY=0.5;entryDx=0;entryDy=0;exitX=0.94;exitY=0.513;exitDx=0;exitDy=0;exitPerimeter=0;" parent="1" source="A9i1_2r06wziE7NqVmH8-50" target="A9i1_2r06wziE7NqVmH8-57" edge="1">
          <mxGeometry relative="1" as="geometry">
            <mxPoint x="750.0999999999999" y="606.2590234622701" as="sourcePoint" />
            <mxPoint x="799.4499999999998" y="611.4469999999997" as="targetPoint" />
          </mxGeometry>
        </mxCell>
        <mxCell id="A9i1_2r06wziE7NqVmH8-36" value="数据中台" style="verticalLabelPosition=bottom;html=1;verticalAlign=top;strokeWidth=1;align=center;outlineConnect=0;dashed=0;outlineConnect=0;shape=mxgraph.aws3d.dataServer;strokeColor=#5E5E5E;aspect=fixed;" parent="1" vertex="1">
          <mxGeometry x="278.62" y="158.5" width="106.75" height="92" as="geometry" />
        </mxCell>
        <mxCell id="A9i1_2r06wziE7NqVmH8-37" style="edgeStyle=none;rounded=0;html=1;startSize=10;endSize=10;jettySize=auto;orthogonalLoop=1;fontSize=14;endArrow=none;endFill=0;strokeWidth=2;startArrow=blockThin;startFill=1;entryX=0;entryY=0.5;entryDx=0;entryDy=0;" parent="1" source="A9i1_2r06wziE7NqVmH8-36" target="A9i1_2r06wziE7NqVmH8-48" edge="1">
          <mxGeometry relative="1" as="geometry">
            <mxPoint x="730.5557263643352" y="591.25" as="sourcePoint" />
            <mxPoint x="690" y="205" as="targetPoint" />
          </mxGeometry>
        </mxCell>
        <mxCell id="A9i1_2r06wziE7NqVmH8-39" value="&lt;span style=&quot;font-size: 16px&quot;&gt;数据池&lt;/span&gt;" style="whiteSpace=wrap;html=1;fontSize=14;verticalAlign=top;fillColor=#d5e8d4;strokeColor=none;align=left;" parent="1" vertex="1">
          <mxGeometry x="577" y="813" width="308" height="252" as="geometry" />
        </mxCell>
        <mxCell id="A9i1_2r06wziE7NqVmH8-34" style="edgeStyle=none;rounded=0;html=1;startSize=10;endSize=10;jettySize=auto;orthogonalLoop=1;fontSize=14;endArrow=none;endFill=0;strokeWidth=2;startArrow=blockThin;startFill=1;" parent="1" source="A9i1_2r06wziE7NqVmH8-40" target="A9i1_2r06wziE7NqVmH8-50" edge="1">
          <mxGeometry relative="1" as="geometry">
            <mxPoint x="794.7340425531911" y="870" as="sourcePoint" />
            <mxPoint x="740" y="660" as="targetPoint" />
          </mxGeometry>
        </mxCell>
        <mxCell id="A9i1_2r06wziE7NqVmH8-35" value="行情" style="edgeLabel;html=1;align=center;verticalAlign=middle;resizable=0;points=[];fontSize=14;" parent="A9i1_2r06wziE7NqVmH8-34" vertex="1" connectable="0">
          <mxGeometry x="0.1133" y="-1" relative="1" as="geometry">
            <mxPoint x="-5.98" y="-37.03" as="offset" />
          </mxGeometry>
        </mxCell>
        <mxCell id="A9i1_2r06wziE7NqVmH8-30" style="edgeStyle=none;rounded=0;html=1;startSize=10;endSize=10;jettySize=auto;orthogonalLoop=1;fontSize=14;endArrow=none;endFill=0;strokeWidth=2;startArrow=blockThin;startFill=1;exitX=0.25;exitY=0;exitDx=0;exitDy=0;" parent="1" source="A9i1_2r06wziE7NqVmH8-42" target="A9i1_2r06wziE7NqVmH8-50" edge="1">
          <mxGeometry relative="1" as="geometry">
            <mxPoint x="660" y="880" as="sourcePoint" />
            <mxPoint x="690" y="660" as="targetPoint" />
          </mxGeometry>
        </mxCell>
        <mxCell id="A9i1_2r06wziE7NqVmH8-31" value="因子" style="edgeLabel;html=1;align=center;verticalAlign=middle;resizable=0;points=[];fontSize=14;" parent="A9i1_2r06wziE7NqVmH8-30" vertex="1" connectable="0">
          <mxGeometry x="0.1133" y="-1" relative="1" as="geometry">
            <mxPoint as="offset" />
          </mxGeometry>
        </mxCell>
        <mxCell id="A9i1_2r06wziE7NqVmH8-40" value="&lt;font style=&quot;font-size: 15px&quot;&gt;redis&lt;/font&gt;" style="aspect=fixed;html=1;points=[];align=center;image;fontSize=12;image=img/lib/mscae/Cache_Redis_Product.svg;fillColor=#66FF66;" parent="1" vertex="1">
          <mxGeometry x="720" y="990" width="71.43" height="60" as="geometry" />
        </mxCell>
        <mxCell id="A9i1_2r06wziE7NqVmH8-42" value="&lt;font style=&quot;font-size: 16px&quot;&gt;sql&lt;/font&gt;" style="aspect=fixed;perimeter=ellipsePerimeter;html=1;align=center;shadow=0;dashed=0;spacingTop=3;image;image=img/lib/active_directory/sql_server.svg;fillColor=#00994D;fontSize=14;sketch=0;" parent="1" vertex="1">
          <mxGeometry x="650" y="866.9" width="53.9" height="70" as="geometry" />
        </mxCell>
        <mxCell id="A9i1_2r06wziE7NqVmH8-45" value="&lt;span style=&quot;background-color: rgb(255 , 255 , 255)&quot;&gt;mongodb&lt;/span&gt;" style="dashed=0;outlineConnect=0;html=1;align=center;labelPosition=center;verticalLabelPosition=bottom;verticalAlign=top;shape=mxgraph.weblogos.mongodb;sketch=0;fillColor=#00994D;fontSize=14;" parent="1" vertex="1">
          <mxGeometry x="802" y="858.8" width="41.2" height="86.2" as="geometry" />
        </mxCell>
        <mxCell id="A9i1_2r06wziE7NqVmH8-48" value="" style="shape=image;html=1;verticalAlign=top;verticalLabelPosition=bottom;labelBackgroundColor=#ffffff;imageAspect=0;aspect=fixed;image=https://cdn0.iconfinder.com/data/icons/common-file-extensions-audio-documents/24/ext_csv-128.png;sketch=0;fillColor=#00994D;fontSize=14;" parent="1" vertex="1">
          <mxGeometry x="670.6" y="155" width="100" height="100" as="geometry" />
        </mxCell>
        <mxCell id="A9i1_2r06wziE7NqVmH8-50" value="&lt;font color=&quot;#ffffff&quot;&gt;数据集成&lt;/font&gt;" style="html=1;aspect=fixed;strokeColor=none;shadow=0;align=center;verticalAlign=top;fillColor=#3B8DF1;shape=mxgraph.gcp2.process;sketch=0;fontSize=14;" parent="1" vertex="1">
          <mxGeometry x="678.6" y="558.75" width="84" height="100" as="geometry" />
        </mxCell>
        <mxCell id="A9i1_2r06wziE7NqVmH8-56" value="" style="aspect=fixed;perimeter=ellipsePerimeter;html=1;align=center;shadow=0;dashed=0;spacingTop=3;image;image=img/lib/active_directory/firewall.svg;sketch=0;fillColor=#00994D;fontSize=14;" parent="1" vertex="1">
          <mxGeometry x="809.9" y="155" width="67.1" height="110" as="geometry" />
        </mxCell>
        <mxCell id="A9i1_2r06wziE7NqVmH8-57" value="" style="aspect=fixed;perimeter=ellipsePerimeter;html=1;align=center;shadow=0;dashed=0;spacingTop=3;image;image=img/lib/active_directory/firewall.svg;sketch=0;fillColor=#00994D;fontSize=14;" parent="1" vertex="1">
          <mxGeometry x="791.43" y="553.75" width="67.1" height="110" as="geometry" />
        </mxCell>
        <mxCell id="A9i1_2r06wziE7NqVmH8-58" value="" style="aspect=fixed;pointerEvents=1;shadow=0;dashed=0;html=1;strokeColor=none;labelPosition=center;verticalLabelPosition=bottom;verticalAlign=top;align=center;fillColor=#00188D;shape=mxgraph.mscae.enterprise.workstation_client;sketch=0;fontSize=14;" parent="1" vertex="1">
          <mxGeometry x="370" y="896.5" width="85" height="85" as="geometry" />
        </mxCell>
        <mxCell id="A9i1_2r06wziE7NqVmH8-60" value="" style="aspect=fixed;pointerEvents=1;shadow=0;dashed=0;html=1;strokeColor=none;labelPosition=center;verticalLabelPosition=bottom;verticalAlign=top;align=center;fillColor=#00188D;shape=mxgraph.mscae.enterprise.workstation_client;sketch=0;fontSize=14;" parent="1" vertex="1">
          <mxGeometry x="370" y="571.75" width="85" height="85" as="geometry" />
        </mxCell>
        <mxCell id="A9i1_2r06wziE7NqVmH8-61" style="edgeStyle=none;rounded=0;html=1;startSize=10;endSize=10;jettySize=auto;orthogonalLoop=1;fontSize=14;endArrow=blockThin;endFill=1;strokeWidth=2;startArrow=blockThin;startFill=1;entryX=0;entryY=0.5;entryDx=0;entryDy=0;exitX=1;exitY=0.5;exitDx=0;exitDy=0;exitPerimeter=0;" parent="1" source="A9i1_2r06wziE7NqVmH8-58" target="A9i1_2r06wziE7NqVmH8-39" edge="1">
          <mxGeometry relative="1" as="geometry">
            <mxPoint x="395.3699999999999" y="214.57881602457132" as="sourcePoint" />
            <mxPoint x="680.5999999999999" y="215" as="targetPoint" />
          </mxGeometry>
        </mxCell>
        <mxCell id="A9i1_2r06wziE7NqVmH8-62" value="web服务" style="shape=image;html=1;verticalAlign=top;verticalLabelPosition=bottom;labelBackgroundColor=#ffffff;imageAspect=0;aspect=fixed;image=https://cdn3.iconfinder.com/data/icons/streamline-icon-set-free-pack/48/Streamline-17-128.png;sketch=0;fillColor=#00994D;fontSize=14;align=center;" parent="1" vertex="1">
          <mxGeometry x="540" y="571.75" width="87" height="87" as="geometry" />
        </mxCell>
        <mxCell id="A9i1_2r06wziE7NqVmH8-65" style="edgeStyle=none;rounded=0;html=1;startSize=10;endSize=10;jettySize=auto;orthogonalLoop=1;fontSize=14;endArrow=blockThin;endFill=1;strokeWidth=2;startArrow=blockThin;startFill=1;entryX=0;entryY=0.5;entryDx=0;entryDy=0;exitX=1;exitY=0.5;exitDx=0;exitDy=0;exitPerimeter=0;" parent="1" source="A9i1_2r06wziE7NqVmH8-60" target="A9i1_2r06wziE7NqVmH8-62" edge="1">
          <mxGeometry relative="1" as="geometry">
            <mxPoint x="464.9999999999998" y="949" as="sourcePoint" />
            <mxPoint x="587" y="949" as="targetPoint" />
          </mxGeometry>
        </mxCell>
        <mxCell id="A9i1_2r06wziE7NqVmH8-67" style="edgeStyle=none;rounded=0;html=1;startSize=10;endSize=10;jettySize=auto;orthogonalLoop=1;fontSize=14;endArrow=none;endFill=0;strokeWidth=2;startArrow=blockThin;startFill=1;" parent="1" target="A9i1_2r06wziE7NqVmH8-50" edge="1">
          <mxGeometry relative="1" as="geometry">
            <mxPoint x="817.6035817840693" y="868.8" as="sourcePoint" />
            <mxPoint x="747.9972369094321" y="668.7500000000002" as="targetPoint" />
          </mxGeometry>
        </mxCell>
        <mxCell id="A9i1_2r06wziE7NqVmH8-68" value="行情" style="edgeLabel;html=1;align=center;verticalAlign=middle;resizable=0;points=[];fontSize=14;" parent="A9i1_2r06wziE7NqVmH8-67" vertex="1" connectable="0">
          <mxGeometry x="0.1133" y="-1" relative="1" as="geometry">
            <mxPoint as="offset" />
          </mxGeometry>
        </mxCell>
        <mxCell id="A9i1_2r06wziE7NqVmH8-69" style="edgeStyle=none;rounded=0;html=1;startSize=10;endSize=10;jettySize=auto;orthogonalLoop=1;fontSize=14;endArrow=none;endFill=0;strokeWidth=2;exitX=0.005;exitY=0.598;exitDx=0;exitDy=0;exitPerimeter=0;" parent="1" source="A9i1_2r06wziE7NqVmH8-50" target="A9i1_2r06wziE7NqVmH8-62" edge="1">
          <mxGeometry relative="1" as="geometry">
            <mxPoint x="1268.37" y="462.99151161793725" as="sourcePoint" />
            <mxPoint x="630" y="615" as="targetPoint" />
          </mxGeometry>
        </mxCell>
        <mxCell id="A9i1_2r06wziE7NqVmH8-70" style="edgeStyle=none;rounded=0;html=1;startSize=10;endSize=10;jettySize=auto;orthogonalLoop=1;fontSize=14;endArrow=none;endFill=0;strokeWidth=2;exitX=0.127;exitY=0.005;exitDx=0;exitDy=0;exitPerimeter=0;" parent="1" source="A9i1_2r06wziE7NqVmH8-39" edge="1">
          <mxGeometry relative="1" as="geometry">
            <mxPoint x="688.5999999999999" y="621.666666666667" as="sourcePoint" />
            <mxPoint x="600" y="690" as="targetPoint" />
          </mxGeometry>
        </mxCell>
        <mxCell id="pVSQ1wIAFeBnWIZubmTn-1" value="" style="group" vertex="1" connectable="0" parent="1">
          <mxGeometry x="1090" y="98" width="439" height="651" as="geometry" />
        </mxCell>
        <mxCell id="6a7d8f32e03d9370-61" value="&lt;span style=&quot;font-size: 16px&quot;&gt;外部数据源&lt;/span&gt;" style="whiteSpace=wrap;html=1;fillColor=#f8cecc;fontSize=14;strokeColor=none;verticalAlign=top;" parent="pVSQ1wIAFeBnWIZubmTn-1" vertex="1">
          <mxGeometry width="439" height="651" as="geometry" />
        </mxCell>
        <mxCell id="A9i1_2r06wziE7NqVmH8-11" value="API" style="pointerEvents=1;shadow=0;dashed=0;html=1;strokeColor=none;fillColor=#505050;labelPosition=center;verticalLabelPosition=bottom;verticalAlign=top;outlineConnect=0;align=center;shape=mxgraph.office.concepts.globe_internet;" parent="pVSQ1wIAFeBnWIZubmTn-1" vertex="1">
          <mxGeometry x="265.5" y="196" width="49" height="49" as="geometry" />
        </mxCell>
        <mxCell id="A9i1_2r06wziE7NqVmH8-17" value="API" style="pointerEvents=1;shadow=0;dashed=0;html=1;strokeColor=none;fillColor=#505050;labelPosition=center;verticalLabelPosition=bottom;verticalAlign=top;outlineConnect=0;align=center;shape=mxgraph.office.concepts.globe_internet;" parent="pVSQ1wIAFeBnWIZubmTn-1" vertex="1">
          <mxGeometry x="265.5" y="451.5" width="49" height="49" as="geometry" />
        </mxCell>
        <mxCell id="A9i1_2r06wziE7NqVmH8-51" value="" style="shape=image;html=1;verticalAlign=top;verticalLabelPosition=bottom;labelBackgroundColor=#ffffff;imageAspect=0;aspect=fixed;image=https://cdn0.iconfinder.com/data/icons/common-file-extensions-audio-documents/24/ext_csv-128.png;sketch=0;fillColor=#00994D;fontSize=14;" parent="pVSQ1wIAFeBnWIZubmTn-1" vertex="1">
          <mxGeometry x="240" y="66" width="100" height="100" as="geometry" />
        </mxCell>
        <mxCell id="A9i1_2r06wziE7NqVmH8-52" value="" style="shape=image;html=1;verticalAlign=top;verticalLabelPosition=bottom;labelBackgroundColor=#ffffff;imageAspect=0;aspect=fixed;image=https://cdn0.iconfinder.com/data/icons/common-file-extensions-audio-documents/24/ext_csv-128.png;sketch=0;fillColor=#00994D;fontSize=14;" parent="pVSQ1wIAFeBnWIZubmTn-1" vertex="1">
          <mxGeometry x="240" y="288" width="100" height="100" as="geometry" />
        </mxCell>
        <mxCell id="A9i1_2r06wziE7NqVmH8-53" value="&lt;font style=&quot;font-size: 16px&quot;&gt;TC&lt;/font&gt;" style="pointerEvents=1;shadow=0;dashed=0;html=1;strokeColor=none;fillColor=#005F4B;labelPosition=center;verticalLabelPosition=bottom;verticalAlign=top;align=center;outlineConnect=0;shape=mxgraph.veeam2.server;sketch=0;fontSize=14;" parent="pVSQ1wIAFeBnWIZubmTn-1" vertex="1">
          <mxGeometry x="78.36999999999989" y="156" width="90" height="60" as="geometry" />
        </mxCell>
        <mxCell id="A9i1_2r06wziE7NqVmH8-54" value="&lt;font style=&quot;font-size: 17px&quot;&gt;标普&lt;/font&gt;" style="pointerEvents=1;shadow=0;dashed=0;html=1;strokeColor=none;fillColor=#005F4B;labelPosition=center;verticalLabelPosition=bottom;verticalAlign=top;align=center;outlineConnect=0;shape=mxgraph.veeam2.server;sketch=0;fontSize=14;" parent="pVSQ1wIAFeBnWIZubmTn-1" vertex="1">
          <mxGeometry x="78.36999999999989" y="296" width="90" height="60" as="geometry" />
        </mxCell>
        <mxCell id="A9i1_2r06wziE7NqVmH8-55" value="&lt;font style=&quot;font-size: 16px&quot;&gt;聚宽&lt;/font&gt;" style="pointerEvents=1;shadow=0;dashed=0;html=1;strokeColor=none;fillColor=#005F4B;labelPosition=center;verticalLabelPosition=bottom;verticalAlign=top;align=center;outlineConnect=0;shape=mxgraph.veeam2.server;sketch=0;fontSize=14;" parent="pVSQ1wIAFeBnWIZubmTn-1" vertex="1">
          <mxGeometry x="78.36999999999989" y="440.5" width="90" height="60" as="geometry" />
        </mxCell>
        <mxCell id="A9i1_2r06wziE7NqVmH8-5" style="edgeStyle=none;rounded=0;html=1;startSize=10;endSize=10;jettySize=auto;orthogonalLoop=1;fontSize=14;endArrow=none;endFill=0;strokeWidth=2;entryX=0;entryY=0.5;entryDx=0;entryDy=0;" parent="pVSQ1wIAFeBnWIZubmTn-1" source="A9i1_2r06wziE7NqVmH8-53" target="A9i1_2r06wziE7NqVmH8-51" edge="1">
          <mxGeometry relative="1" as="geometry">
            <mxPoint x="1266.75" y="451.21757770632394" as="sourcePoint" />
            <mxPoint x="1350" y="422.46184838020076" as="targetPoint" />
          </mxGeometry>
        </mxCell>
        <mxCell id="A9i1_2r06wziE7NqVmH8-12" style="edgeStyle=none;rounded=0;html=1;startSize=10;endSize=10;jettySize=auto;orthogonalLoop=1;fontSize=14;endArrow=none;endFill=0;strokeWidth=2;" parent="pVSQ1wIAFeBnWIZubmTn-1" source="A9i1_2r06wziE7NqVmH8-53" target="A9i1_2r06wziE7NqVmH8-11" edge="1">
          <mxGeometry relative="1" as="geometry">
            <mxPoint x="1266.75" y="495.12940735183815" as="sourcePoint" />
            <mxPoint x="1360" y="413.8766603415561" as="targetPoint" />
          </mxGeometry>
        </mxCell>
        <mxCell id="A9i1_2r06wziE7NqVmH8-10" style="edgeStyle=none;rounded=0;html=1;startSize=10;endSize=10;jettySize=auto;orthogonalLoop=1;fontSize=14;endArrow=none;endFill=0;strokeWidth=2;entryX=0;entryY=0.5;entryDx=0;entryDy=0;" parent="pVSQ1wIAFeBnWIZubmTn-1" source="A9i1_2r06wziE7NqVmH8-54" target="A9i1_2r06wziE7NqVmH8-52" edge="1">
          <mxGeometry relative="1" as="geometry">
            <mxPoint x="1266.75" y="629.8306538049303" as="sourcePoint" />
            <mxPoint x="1350" y="632.493504357836" as="targetPoint" />
          </mxGeometry>
        </mxCell>
        <mxCell id="A9i1_2r06wziE7NqVmH8-18" style="edgeStyle=none;rounded=0;html=1;startSize=10;endSize=10;jettySize=auto;orthogonalLoop=1;fontSize=14;endArrow=none;endFill=0;strokeWidth=2;" parent="pVSQ1wIAFeBnWIZubmTn-1" source="A9i1_2r06wziE7NqVmH8-55" target="A9i1_2r06wziE7NqVmH8-17" edge="1">
          <mxGeometry relative="1" as="geometry">
            <mxPoint x="1266.75" y="767.960990247562" as="sourcePoint" />
            <mxPoint x="1330" y="768" as="targetPoint" />
          </mxGeometry>
        </mxCell>
        <mxCell id="6a7d8f32e03d9370-56" style="edgeStyle=none;rounded=0;html=1;jettySize=auto;orthogonalLoop=1;fontSize=14;endArrow=none;endFill=0;strokeWidth=2;exitX=0.927;exitY=0.285;exitDx=0;exitDy=0;exitPerimeter=0;startArrow=blockThin;startFill=1;endSize=10;startSize=10;" parent="1" source="6a7d8f32e03d9370-13" target="A9i1_2r06wziE7NqVmH8-53" edge="1">
          <mxGeometry relative="1" as="geometry">
            <mxPoint x="1160" y="517.3961055889963" as="targetPoint" />
          </mxGeometry>
        </mxCell>
        <mxCell id="A9i1_2r06wziE7NqVmH8-7" style="edgeStyle=none;rounded=0;html=1;startSize=10;endSize=10;jettySize=auto;orthogonalLoop=1;fontSize=14;endArrow=none;endFill=0;strokeWidth=2;startArrow=blockThin;startFill=1;exitX=0.982;exitY=0.603;exitDx=0;exitDy=0;exitPerimeter=0;" parent="1" source="6a7d8f32e03d9370-13" target="A9i1_2r06wziE7NqVmH8-54" edge="1">
          <mxGeometry relative="1" as="geometry">
            <mxPoint x="1038" y="597.0027891955374" as="sourcePoint" />
            <mxPoint x="1160" y="622.2958015267177" as="targetPoint" />
          </mxGeometry>
        </mxCell>
        <mxCell id="A9i1_2r06wziE7NqVmH8-2" style="edgeStyle=none;rounded=0;html=1;startSize=10;endSize=10;jettySize=auto;orthogonalLoop=1;fontSize=14;endArrow=blockThin;endFill=1;strokeWidth=2;" parent="1" source="A9i1_2r06wziE7NqVmH8-55" edge="1">
          <mxGeometry relative="1" as="geometry">
            <mxPoint x="1160" y="725.568316831683" as="sourcePoint" />
            <mxPoint x="1024" y="620" as="targetPoint" />
          </mxGeometry>
        </mxCell>
        <mxCell id="pVSQ1wIAFeBnWIZubmTn-2" value="&lt;span style=&quot;font-size: 16px&quot;&gt;生产环境数据源&lt;br&gt;&lt;/span&gt;" style="whiteSpace=wrap;html=1;fontSize=14;verticalAlign=top;align=center;fillColor=#e1d5e7;strokeColor=none;" vertex="1" parent="1">
          <mxGeometry x="1090" y="808" width="440" height="300" as="geometry" />
        </mxCell>
        <mxCell id="pVSQ1wIAFeBnWIZubmTn-3" value="&lt;span style=&quot;font-size: 16px&quot;&gt;MongoDb&lt;/span&gt;" style="pointerEvents=1;shadow=0;dashed=0;html=1;strokeColor=none;fillColor=#005F4B;labelPosition=center;verticalLabelPosition=bottom;verticalAlign=top;align=center;outlineConnect=0;shape=mxgraph.veeam2.server;sketch=0;fontSize=14;" vertex="1" parent="1">
          <mxGeometry x="1170" y="896.5" width="90" height="60" as="geometry" />
        </mxCell>
        <mxCell id="pVSQ1wIAFeBnWIZubmTn-4" value="database" style="html=1;verticalLabelPosition=bottom;align=center;labelBackgroundColor=#ffffff;verticalAlign=top;strokeWidth=2;shadow=0;dashed=0;shape=mxgraph.ios7.icons.data;gradientColor=none;fillColor=#007FFF;strokeColor=#4D4D4D;" vertex="1" parent="1">
          <mxGeometry x="1360" y="858.8" width="24" height="29.099999999999998" as="geometry" />
        </mxCell>
        <mxCell id="pVSQ1wIAFeBnWIZubmTn-5" value="secu_store" style="html=1;verticalLabelPosition=bottom;align=center;labelBackgroundColor=#ffffff;verticalAlign=top;strokeWidth=2;shadow=0;dashed=0;shape=mxgraph.ios7.icons.data;gradientColor=none;fillColor=#007FFF;strokeColor=#4D4D4D;" vertex="1" parent="1">
          <mxGeometry x="1360" y="990" width="24" height="29.099999999999998" as="geometry" />
        </mxCell>
        <mxCell id="pVSQ1wIAFeBnWIZubmTn-6" style="edgeStyle=none;rounded=0;html=1;startSize=10;endSize=10;jettySize=auto;orthogonalLoop=1;fontSize=14;endArrow=none;endFill=0;strokeWidth=2;entryX=-0.167;entryY=0.557;entryDx=0;entryDy=0;entryPerimeter=0;" edge="1" parent="1" source="pVSQ1wIAFeBnWIZubmTn-3" target="pVSQ1wIAFeBnWIZubmTn-4">
          <mxGeometry relative="1" as="geometry">
            <mxPoint x="1260" y="871.7453267718897" as="sourcePoint" />
            <mxPoint x="1350" y="875" as="targetPoint" />
          </mxGeometry>
        </mxCell>
        <mxCell id="pVSQ1wIAFeBnWIZubmTn-7" style="edgeStyle=none;rounded=0;html=1;startSize=10;endSize=10;jettySize=auto;orthogonalLoop=1;fontSize=14;endArrow=none;endFill=0;strokeWidth=2;entryX=-0.167;entryY=0.378;entryDx=0;entryDy=0;entryPerimeter=0;" edge="1" parent="1" source="pVSQ1wIAFeBnWIZubmTn-3" target="pVSQ1wIAFeBnWIZubmTn-5">
          <mxGeometry relative="1" as="geometry">
            <mxPoint x="1240" y="1019.0956739389469" as="sourcePoint" />
            <mxPoint x="1335.9920000000002" y="984.0386999999998" as="targetPoint" />
          </mxGeometry>
        </mxCell>
        <mxCell id="pVSQ1wIAFeBnWIZubmTn-8" style="edgeStyle=none;rounded=0;html=1;startSize=10;endSize=10;jettySize=auto;orthogonalLoop=1;fontSize=14;endArrow=none;endFill=0;strokeWidth=2;startArrow=blockThin;startFill=1;exitX=0.8;exitY=1.014;exitDx=0;exitDy=0;exitPerimeter=0;" edge="1" parent="1" source="6a7d8f32e03d9370-13" target="pVSQ1wIAFeBnWIZubmTn-3">
          <mxGeometry relative="1" as="geometry">
            <mxPoint x="953.8996068362428" y="874.0137332790775" as="sourcePoint" />
            <mxPoint x="1047.1049999999998" y="872.6779999999999" as="targetPoint" />
          </mxGeometry>
        </mxCell>
      </root>
    </mxGraphModel>
  </diagram>
</mxfile>
